<mxfile host="app.diagrams.net" modified="2023-05-11T12:02:29.805Z" agent="Mozilla/5.0 (Windows NT 10.0; Win64; x64) AppleWebKit/537.36 (KHTML, like Gecko) Chrome/112.0.0.0 Safari/537.36" etag="pSAyIB_Zcq4P17nET38x" version="21.2.9" type="github">
  <diagram name="페이지-1" id="KhytnOzXoeJuOe2gRhvy">
    <mxGraphModel dx="1434" dy="756" grid="1" gridSize="10" guides="1" tooltips="1" connect="1" arrows="1" fold="1" page="1" pageScale="1" pageWidth="827" pageHeight="1169" math="0" shadow="0">
      <root>
        <mxCell id="0" />
        <mxCell id="1" parent="0" />
        <mxCell id="VF3TMPHuEjVKn3B3LAOO-1" value="&lt;p style=&quot;margin:0px;margin-top:4px;text-align:center;&quot;&gt;&lt;b&gt;채용 정보 관리 시스템&lt;/b&gt;&lt;/p&gt;&lt;hr size=&quot;1&quot;&gt;&lt;div style=&quot;height:2px;&quot;&gt;&lt;/div&gt;" style="verticalAlign=top;align=left;overflow=fill;fontSize=12;fontFamily=Helvetica;html=1;whiteSpace=wrap;" parent="1" vertex="1">
          <mxGeometry x="320" y="20" width="430" height="820" as="geometry" />
        </mxCell>
        <mxCell id="VF3TMPHuEjVKn3B3LAOO-2" value="회사 회원" style="shape=umlActor;verticalLabelPosition=bottom;verticalAlign=top;html=1;" parent="1" vertex="1">
          <mxGeometry x="180" y="160" width="30" height="60" as="geometry" />
        </mxCell>
        <mxCell id="VF3TMPHuEjVKn3B3LAOO-3" value="채용 정보 등록" style="ellipse;whiteSpace=wrap;html=1;" parent="1" vertex="1">
          <mxGeometry x="370" y="70" width="140" height="70" as="geometry" />
        </mxCell>
        <mxCell id="VF3TMPHuEjVKn3B3LAOO-4" value="등록한 채용 정보 리스트 조회" style="ellipse;whiteSpace=wrap;html=1;" parent="1" vertex="1">
          <mxGeometry x="370" y="340" width="140" height="70" as="geometry" />
        </mxCell>
        <mxCell id="VF3TMPHuEjVKn3B3LAOO-5" value="채용 정보 마감된 &lt;br&gt;리스트 조회" style="ellipse;whiteSpace=wrap;html=1;" parent="1" vertex="1">
          <mxGeometry x="370" y="430" width="140" height="70" as="geometry" />
        </mxCell>
        <mxCell id="VF3TMPHuEjVKn3B3LAOO-6" value="채용 정보 수정" style="ellipse;whiteSpace=wrap;html=1;" parent="1" vertex="1">
          <mxGeometry x="370" y="160" width="140" height="70" as="geometry" />
        </mxCell>
        <mxCell id="VF3TMPHuEjVKn3B3LAOO-7" value="채용 조기 마감" style="ellipse;whiteSpace=wrap;html=1;" parent="1" vertex="1">
          <mxGeometry x="370" y="520" width="140" height="70" as="geometry" />
        </mxCell>
        <mxCell id="VF3TMPHuEjVKn3B3LAOO-8" value="" style="endArrow=none;html=1;rounded=0;entryX=0;entryY=0.5;entryDx=0;entryDy=0;exitX=0.7;exitY=0.767;exitDx=0;exitDy=0;exitPerimeter=0;" parent="1" source="VF3TMPHuEjVKn3B3LAOO-2" target="VF3TMPHuEjVKn3B3LAOO-4" edge="1">
          <mxGeometry width="50" height="50" relative="1" as="geometry">
            <mxPoint x="214" y="179" as="sourcePoint" />
            <mxPoint x="382" y="143" as="targetPoint" />
          </mxGeometry>
        </mxCell>
        <mxCell id="VF3TMPHuEjVKn3B3LAOO-9" value="" style="endArrow=none;html=1;rounded=0;entryX=0.007;entryY=0.357;entryDx=0;entryDy=0;entryPerimeter=0;exitX=0.8;exitY=0.817;exitDx=0;exitDy=0;exitPerimeter=0;" parent="1" source="VF3TMPHuEjVKn3B3LAOO-2" target="VF3TMPHuEjVKn3B3LAOO-5" edge="1">
          <mxGeometry width="50" height="50" relative="1" as="geometry">
            <mxPoint x="940" y="240" as="sourcePoint" />
            <mxPoint x="990" y="190" as="targetPoint" />
          </mxGeometry>
        </mxCell>
        <mxCell id="VF3TMPHuEjVKn3B3LAOO-10" value="" style="endArrow=none;html=1;rounded=0;entryX=0;entryY=0.5;entryDx=0;entryDy=0;exitX=0.75;exitY=0.1;exitDx=0;exitDy=0;exitPerimeter=0;" parent="1" source="VF3TMPHuEjVKn3B3LAOO-2" target="VF3TMPHuEjVKn3B3LAOO-3" edge="1">
          <mxGeometry width="50" height="50" relative="1" as="geometry">
            <mxPoint x="160" y="100" as="sourcePoint" />
            <mxPoint x="210" y="50" as="targetPoint" />
          </mxGeometry>
        </mxCell>
        <mxCell id="VF3TMPHuEjVKn3B3LAOO-11" value="" style="endArrow=none;html=1;rounded=0;entryX=0.007;entryY=0.4;entryDx=0;entryDy=0;entryPerimeter=0;exitX=1;exitY=0.3333333333333333;exitDx=0;exitDy=0;exitPerimeter=0;" parent="1" source="VF3TMPHuEjVKn3B3LAOO-2" target="VF3TMPHuEjVKn3B3LAOO-6" edge="1">
          <mxGeometry width="50" height="50" relative="1" as="geometry">
            <mxPoint x="180" y="304" as="sourcePoint" />
            <mxPoint x="347" y="440" as="targetPoint" />
          </mxGeometry>
        </mxCell>
        <mxCell id="VF3TMPHuEjVKn3B3LAOO-12" value="채용 정보 삭제" style="ellipse;whiteSpace=wrap;html=1;" parent="1" vertex="1">
          <mxGeometry x="370" y="250" width="140" height="70" as="geometry" />
        </mxCell>
        <mxCell id="VF3TMPHuEjVKn3B3LAOO-13" value="" style="endArrow=none;html=1;rounded=0;entryX=0.029;entryY=0.386;entryDx=0;entryDy=0;entryPerimeter=0;exitX=0.4;exitY=0.65;exitDx=0;exitDy=0;exitPerimeter=0;" parent="1" source="VF3TMPHuEjVKn3B3LAOO-2" target="VF3TMPHuEjVKn3B3LAOO-12" edge="1">
          <mxGeometry width="50" height="50" relative="1" as="geometry">
            <mxPoint x="220" y="190" as="sourcePoint" />
            <mxPoint x="381" y="218" as="targetPoint" />
          </mxGeometry>
        </mxCell>
        <mxCell id="VF3TMPHuEjVKn3B3LAOO-14" value="" style="endArrow=none;html=1;rounded=0;entryX=0;entryY=0.5;entryDx=0;entryDy=0;exitX=0.467;exitY=0.767;exitDx=0;exitDy=0;exitPerimeter=0;" parent="1" source="VF3TMPHuEjVKn3B3LAOO-2" target="VF3TMPHuEjVKn3B3LAOO-7" edge="1">
          <mxGeometry width="50" height="50" relative="1" as="geometry">
            <mxPoint x="955" y="440" as="sourcePoint" />
            <mxPoint x="1005" y="390" as="targetPoint" />
          </mxGeometry>
        </mxCell>
        <mxCell id="LJt94olBIqZ9eZqIOrM--1" value="" style="group" parent="1" vertex="1" connectable="0">
          <mxGeometry x="200" y="550" width="720" height="340" as="geometry" />
        </mxCell>
        <mxCell id="LJt94olBIqZ9eZqIOrM--2" value="일반 회원" style="shape=umlActor;verticalLabelPosition=bottom;verticalAlign=top;html=1;" parent="LJt94olBIqZ9eZqIOrM--1" vertex="1">
          <mxGeometry y="60" width="40" height="70" as="geometry" />
        </mxCell>
        <mxCell id="LJt94olBIqZ9eZqIOrM--3" value="" style="group" parent="LJt94olBIqZ9eZqIOrM--1" vertex="1" connectable="0">
          <mxGeometry x="54" y="60" width="250" height="70" as="geometry" />
        </mxCell>
        <mxCell id="LJt94olBIqZ9eZqIOrM--4" value="채용 정보 조회" style="ellipse;whiteSpace=wrap;html=1;" parent="LJt94olBIqZ9eZqIOrM--3" vertex="1">
          <mxGeometry x="110" width="140" height="70" as="geometry" />
        </mxCell>
        <mxCell id="LJt94olBIqZ9eZqIOrM--5" value="" style="group" parent="LJt94olBIqZ9eZqIOrM--1" vertex="1" connectable="0">
          <mxGeometry x="54" y="160" width="250" height="70" as="geometry" />
        </mxCell>
        <mxCell id="LJt94olBIqZ9eZqIOrM--6" value="지원" style="ellipse;whiteSpace=wrap;html=1;" parent="LJt94olBIqZ9eZqIOrM--5" vertex="1">
          <mxGeometry x="110" width="140" height="70" as="geometry" />
        </mxCell>
        <mxCell id="LJt94olBIqZ9eZqIOrM--7" value="일반 회원" style="shape=umlActor;verticalLabelPosition=bottom;verticalAlign=top;html=1;" parent="LJt94olBIqZ9eZqIOrM--5" vertex="1">
          <mxGeometry x="-54" y="-100" width="40" height="70" as="geometry" />
        </mxCell>
        <mxCell id="LJt94olBIqZ9eZqIOrM--8" value="" style="endArrow=none;html=1;rounded=0;entryX=0.007;entryY=0.614;entryDx=0;entryDy=0;entryPerimeter=0;exitX=0.5;exitY=0.414;exitDx=0;exitDy=0;exitPerimeter=0;" parent="LJt94olBIqZ9eZqIOrM--5" source="LJt94olBIqZ9eZqIOrM--7" target="LJt94olBIqZ9eZqIOrM--11" edge="1">
          <mxGeometry width="50" height="50" relative="1" as="geometry">
            <mxPoint x="108" y="110" as="sourcePoint" />
            <mxPoint x="158" y="60" as="targetPoint" />
          </mxGeometry>
        </mxCell>
        <mxCell id="LJt94olBIqZ9eZqIOrM--9" value="" style="endArrow=none;html=1;rounded=0;entryX=0;entryY=0.5;entryDx=0;entryDy=0;" parent="LJt94olBIqZ9eZqIOrM--5" edge="1">
          <mxGeometry width="50" height="50" relative="1" as="geometry">
            <mxPoint x="-34" y="-70" as="sourcePoint" />
            <mxPoint x="110" y="35" as="targetPoint" />
          </mxGeometry>
        </mxCell>
        <mxCell id="LJt94olBIqZ9eZqIOrM--10" value="" style="group" parent="LJt94olBIqZ9eZqIOrM--5" vertex="1" connectable="0">
          <mxGeometry y="-100" width="250" height="70" as="geometry" />
        </mxCell>
        <mxCell id="LJt94olBIqZ9eZqIOrM--11" value="채용 정보 조회" style="ellipse;whiteSpace=wrap;html=1;" parent="LJt94olBIqZ9eZqIOrM--10" vertex="1">
          <mxGeometry x="110" width="140" height="70" as="geometry" />
        </mxCell>
        <mxCell id="LJt94olBIqZ9eZqIOrM--12" value="상세 채용 정보 리스트" style="ellipse;whiteSpace=wrap;html=1;" parent="LJt94olBIqZ9eZqIOrM--1" vertex="1">
          <mxGeometry x="380" y="120" width="140" height="70" as="geometry" />
        </mxCell>
        <mxCell id="LJt94olBIqZ9eZqIOrM--13" value="&amp;lt;&amp;lt;Include&amp;gt;&amp;gt;" style="endArrow=open;endSize=12;dashed=1;html=1;rounded=0;exitX=1;exitY=0.5;exitDx=0;exitDy=0;entryX=0.057;entryY=0.714;entryDx=0;entryDy=0;entryPerimeter=0;" parent="LJt94olBIqZ9eZqIOrM--1" source="LJt94olBIqZ9eZqIOrM--6" target="LJt94olBIqZ9eZqIOrM--12" edge="1">
          <mxGeometry x="-0.0152" y="14" width="160" relative="1" as="geometry">
            <mxPoint x="380" y="230" as="sourcePoint" />
            <mxPoint x="304" y="290" as="targetPoint" />
            <mxPoint as="offset" />
          </mxGeometry>
        </mxCell>
        <mxCell id="LJt94olBIqZ9eZqIOrM--14" value="&amp;lt;&amp;lt;Include&amp;gt;&amp;gt;" style="endArrow=open;endSize=12;dashed=1;html=1;rounded=0;exitX=0.971;exitY=0.714;exitDx=0;exitDy=0;entryX=0.071;entryY=0.286;entryDx=0;entryDy=0;entryPerimeter=0;exitPerimeter=0;" parent="LJt94olBIqZ9eZqIOrM--1" source="LJt94olBIqZ9eZqIOrM--4" target="LJt94olBIqZ9eZqIOrM--12" edge="1">
          <mxGeometry x="0.2009" y="19" width="160" relative="1" as="geometry">
            <mxPoint x="400" y="55" as="sourcePoint" />
            <mxPoint x="324" y="115" as="targetPoint" />
            <mxPoint as="offset" />
          </mxGeometry>
        </mxCell>
        <mxCell id="LJt94olBIqZ9eZqIOrM--15" value="" style="endArrow=none;html=1;rounded=0;entryX=0.007;entryY=0.614;entryDx=0;entryDy=0;entryPerimeter=0;exitX=0.5;exitY=0.414;exitDx=0;exitDy=0;exitPerimeter=0;" parent="LJt94olBIqZ9eZqIOrM--1" source="LJt94olBIqZ9eZqIOrM--2" target="LJt94olBIqZ9eZqIOrM--4" edge="1">
          <mxGeometry width="50" height="50" relative="1" as="geometry">
            <mxPoint x="162" y="270" as="sourcePoint" />
            <mxPoint x="212" y="220" as="targetPoint" />
          </mxGeometry>
        </mxCell>
        <mxCell id="LJt94olBIqZ9eZqIOrM--16" value="" style="endArrow=none;html=1;rounded=0;entryX=0;entryY=0.5;entryDx=0;entryDy=0;" parent="LJt94olBIqZ9eZqIOrM--1" target="LJt94olBIqZ9eZqIOrM--6" edge="1">
          <mxGeometry width="50" height="50" relative="1" as="geometry">
            <mxPoint x="20" y="90" as="sourcePoint" />
            <mxPoint x="175" y="113" as="targetPoint" />
          </mxGeometry>
        </mxCell>
      </root>
    </mxGraphModel>
  </diagram>
</mxfile>
